<?xml version="1.0" encoding="UTF-8" standalone="no"?>
<!DOCTYPE svg PUBLIC "-//W3C//DTD SVG 1.1//EN" "http://www.w3.org/Graphics/SVG/1.1/DTD/svg11.dtd">
<svg width="100%" height="100%" viewBox="0 0 400 400" version="1.1" xmlns="http://www.w3.org/2000/svg" xmlns:xlink="http://www.w3.org/1999/xlink" xml:space="preserve" xmlns:serif="http://www.serif.com/" style="fill-rule:evenodd;clip-rule:evenodd;stroke-linecap:round;stroke-linejoin:round;stroke-miterlimit:1.5;">
    <path d="M120,120L273,273" style="fill:none;stroke:black;stroke-width:0.69px;stroke-dasharray:3.47,3.47,0,0;"/>
    <circle cx="200" cy="200" r="160" style="fill:white;stroke:black;stroke-width:0.69px;"/>
    <g transform="matrix(1.08849,0,0,1.78571,-16.7425,-157.143)">
        <path d="M144,144L256,256" style="fill:none;stroke:black;stroke-width:0.47px;stroke-dasharray:0.47,1.41,0,0;"/>
    </g>
    <path d="M360,200C360,233.115 288.306,260 200,260C111.694,260 40,233.115 40,200" style="fill:none;stroke:black;stroke-width:0.69px;"/>
    <path d="M40,200C40,166.885 111.694,140 200,140C288.306,140 360,166.885 360,200" style="fill:none;stroke:black;stroke-width:0.69px;stroke-dasharray:3.47,3.47,0,0;"/>
    <path d="M200,360C166.885,360 140,288.306 140,200C140,111.694 166.885,40 200,40" style="fill:none;stroke:black;stroke-width:0.69px;"/>
    <path d="M200,40C233.115,40 260,111.694 260,200C260,288.306 233.115,360 200,360" style="fill:none;stroke:black;stroke-width:0.69px;stroke-dasharray:3.47,3.47,0,0;"/>
    <g transform="matrix(1,0,0,0.888889,0,22.2222)">
        <path d="M200,200L200,20" style="fill:none;stroke:black;stroke-width:1.47px;"/>
    </g>
    <g transform="matrix(0.888889,0,0,1,22.2222,0)">
        <path d="M200,200L380,200" style="fill:none;stroke:black;stroke-width:1.47px;"/>
    </g>
    <path d="M200,200L144,256" style="fill:none;stroke:black;stroke-width:1.39px;"/>
    <g transform="matrix(1,0,0,1,44.4278,-3.83467)">
        <text x="85.45px" y="276.835px" style="font-family:'ArialMT', 'Arial', sans-serif;font-size:16.667px;">x</text>
    </g>
    <g transform="matrix(1,0,0,1,325.015,178.104)">
        <text x="44.798px" y="24.388px" style="font-family:'ArialMT', 'Arial', sans-serif;font-size:16.667px;">y</text>
    </g>
    <g transform="matrix(1,0,0,1,-154.419,-15.4671)">
        <text x="350.444px" y="45.467px" style="font-family:'ArialMT', 'Arial', sans-serif;font-size:16.667px;">z</text>
    </g>
    <g transform="matrix(2.19239,0.558977,-0.417551,1.6377,-144.472,-264.183)">
        <g transform="matrix(0.428282,-0.146181,0.109196,0.573343,90.7222,130.349)">
            <path d="M163.401,268.738L144,255.848L165.952,248.062L163.401,268.738Z"/>
            <path d="M200.575,40.066C241.716,50.555 262.768,107.504 247.558,167.159C234.19,219.592 197.229,256.777 160.541,257.89" style="fill:none;stroke:black;stroke-width:6.94px;"/>
        </g>
    </g>
    <g transform="matrix(1.33333,0,0,1.33333,-49.6667,-38.3333)">
        <circle cx="149" cy="115" r="1.5"/>
    </g>
    <g transform="matrix(1.33333,0,0,1.33333,52.3333,129.167)">
        <circle cx="149" cy="115" r="1.5"/>
    </g>
</svg>
