<?xml version="1.0" encoding="UTF-8" standalone="no"?>
<!DOCTYPE svg PUBLIC "-//W3C//DTD SVG 1.1//EN" "http://www.w3.org/Graphics/SVG/1.1/DTD/svg11.dtd">
<svg width="100%" height="100%" viewBox="0 0 400 400" version="1.1" xmlns="http://www.w3.org/2000/svg" xmlns:xlink="http://www.w3.org/1999/xlink" xml:space="preserve" xmlns:serif="http://www.serif.com/" style="fill-rule:evenodd;clip-rule:evenodd;stroke-linecap:round;stroke-linejoin:round;stroke-miterlimit:1.5;">
    <circle cx="200" cy="200" r="160" style="fill:white;stroke:black;stroke-width:0.69px;"/>
    <path d="M360,200C360,233.115 288.306,260 200,260C111.694,260 40,233.115 40,200" style="fill:none;stroke:black;stroke-width:0.69px;"/>
    <path d="M40,200C40,166.885 111.694,140 200,140C288.306,140 360,166.885 360,200" style="fill:none;stroke:black;stroke-width:0.69px;stroke-dasharray:3.47,3.47,0,0;"/>
    <path d="M200,360C166.885,360 140,288.306 140,200C140,111.694 166.885,40 200,40" style="fill:none;stroke:black;stroke-width:0.69px;"/>
    <path d="M200,40C233.115,40 260,111.694 260,200C260,288.306 233.115,360 200,360" style="fill:none;stroke:black;stroke-width:0.69px;stroke-dasharray:3.47,3.47,0,0;"/>
    <g transform="matrix(1,0,0,0.888889,0,22.2222)">
        <path d="M200,200L200,20" style="fill:none;stroke:black;stroke-width:1.47px;"/>
    </g>
    <g transform="matrix(0.888889,0,0,1,22.2222,0)">
        <path d="M200,200L380,200" style="fill:none;stroke:black;stroke-width:1.47px;"/>
    </g>
    <path d="M200,200L144,256" style="fill:none;stroke:black;stroke-width:1.39px;"/>
    <g transform="matrix(1,0,0,1,44.4278,-3.83467)">
        <text x="85.45px" y="276.835px" style="font-family:'ArialMT', 'Arial', sans-serif;font-size:16.667px;">x</text>
    </g>
    <g transform="matrix(1,0,0,1,325.015,178.104)">
        <text x="44.798px" y="24.388px" style="font-family:'ArialMT', 'Arial', sans-serif;font-size:16.667px;">y</text>
    </g>
    <g transform="matrix(1,0,0,1,-154.419,-15.4671)">
        <text x="350.444px" y="45.467px" style="font-family:'ArialMT', 'Arial', sans-serif;font-size:16.667px;">z</text>
    </g>
    <path d="M178.659,369.332L200,360L179.73,348.526L178.659,369.332Z"/>
    <path d="M183.355,359.143C102.858,350.807 40,282.686 40,200C40,111.694 111.694,40 200,40" style="fill:none;stroke:black;stroke-width:6.94px;"/>
</svg>
