<?xml version="1.0" encoding="UTF-8" standalone="no"?><!DOCTYPE svg PUBLIC "-//W3C//DTD SVG 1.1//EN" "http://www.w3.org/Graphics/SVG/1.1/DTD/svg11.dtd"><svg width="100%" height="100%" viewBox="0 0 600 360" version="1.1" xmlns="http://www.w3.org/2000/svg" xmlns:xlink="http://www.w3.org/1999/xlink" xml:space="preserve" xmlns:serif="http://www.serif.com/" style="fill-rule:evenodd;clip-rule:evenodd;stroke-linecap:round;stroke-linejoin:round;stroke-miterlimit:1.5;"><path d="M480,300l-360,0" style="fill:none;stroke:#000;stroke-width:2.08px;"/><path d="M480,105l-360,0" style="fill:none;stroke:#000;stroke-width:2.08px;"/><circle cx="300" cy="105" r="75" style="fill:#9d9d9d;stroke:#000;stroke-width:4.17px;"/><path d="M270,105l60,0" style="fill:none;stroke:#000;stroke-width:4.17px;"/><circle cx="300" cy="300" r="15" style="stroke:#000;stroke-width:4.17px;"/><path d="M300,183l0,108" style="fill:none;stroke:#000;stroke-width:4.17px;"/><path d="M300,75l0,60" style="fill:none;stroke:#000;stroke-width:4.17px;"/><g><g transform="matrix(0.999821,0,0,1,0.00587472,0)"><text x="32.862px" y="116.381px" style="font-family:'CambriaMath', 'Cambria Math', serif;font-size:45.814px;">|</text></g><g transform="matrix(0.999821,0,0,1,0.00840579,0)"><text x="47.02px" y="116.381px" style="font-family:'CambriaMath', 'Cambria Math', serif;font-size:45.814px;">𝑞</text></g><g transform="matrix(0.999821,0,0,1,0.0125746,0)"><text x="70.339px" y="125.544px" style="font-family:'CambriaMath', 'Cambria Math', serif;font-size:33.319px;">1</text></g><g transform="matrix(0.999821,0,0,1,0.0162968,-1.42109e-14)"><g transform="matrix(45.8138,0,0,45.8138,91.1595,114.715)"><path d="M0.104,-0.701l0.195,0.438l-0,0.036l-0.195,0.439l-0.052,-0.018l0.156,-0.439l-0.156,-0.439l0.052,-0.017Z" style="fill-rule:nonzero;"/></g></g></g><g><g transform="matrix(0.999821,0,0,1,0.00572583,0)"><text x="32.029px" y="312.085px" style="font-family:'CambriaMath', 'Cambria Math', serif;font-size:45.814px;">|</text></g><g transform="matrix(0.999821,0,0,1,0.00840579,0)"><text x="47.02px" y="312.085px" style="font-family:'CambriaMath', 'Cambria Math', serif;font-size:45.814px;">𝑞</text></g><g transform="matrix(0.999821,0,0,1,0.0127235,0)"><text x="71.172px" y="321.248px" style="font-family:'CambriaMath', 'Cambria Math', serif;font-size:33.319px;">2</text></g><g transform="matrix(0.999821,0,0,1,0.0164457,0)"><g transform="matrix(45.8138,0,0,45.8138,91.9923,310.419)"><path d="M0.104,-0.701l0.195,0.438l-0,0.036l-0.195,0.439l-0.052,-0.018l0.156,-0.439l-0.156,-0.439l0.052,-0.017Z" style="fill-rule:nonzero;"/></g></g></g></svg>