<?xml version="1.0" encoding="UTF-8" standalone="no"?><!DOCTYPE svg PUBLIC "-//W3C//DTD SVG 1.1//EN" "http://www.w3.org/Graphics/SVG/1.1/DTD/svg11.dtd"><svg width="100%" height="100%" viewBox="0 0 1350 600" version="1.1" xmlns="http://www.w3.org/2000/svg" xmlns:xlink="http://www.w3.org/1999/xlink" xml:space="preserve" xmlns:serif="http://www.serif.com/" style="fill-rule:evenodd;clip-rule:evenodd;stroke-linecap:round;stroke-linejoin:round;stroke-miterlimit:1.5;"><path d="M675,226.5l0,195" style="fill:none;stroke:#000;stroke-width:4.17px;"/><path d="M1215,225l-1080,0" style="fill:none;stroke:#000;stroke-width:3px;"/><path d="M1215,420l-1080,0" style="fill:none;stroke:#000;stroke-width:3px;"/><circle cx="675" cy="420" r="60" style="fill:#9d9d9d;stroke:#000;stroke-width:4.17px;"/><path d="M645,420l60,0" style="fill:none;stroke:#000;stroke-width:4.17px;"/><circle cx="675" cy="225" r="15" style="stroke:#000;stroke-width:4.17px;"/><path d="M675,390l0,60" style="fill:none;stroke:#000;stroke-width:4.17px;"/><rect x="240" y="150" width="150" height="150" style="fill:#9d9d9d;stroke:#000;stroke-width:4.17px;"/><text x="284.93px" y="255px" style="font-family:'ArialMT', 'Arial', sans-serif;font-size:83.333px;">H</text><rect x="960" y="150" width="150" height="150" style="fill:#9d9d9d;stroke:#000;stroke-width:4.17px;"/><text x="1010.32px" y="287.756px" style="font-family:'ArialMT', 'Arial', sans-serif;font-size:58.333px;">M</text><path d="M975,223.848c0,-33.115 26.885,-60 60,-60c33.115,0 60,26.885 60,60" style="fill:none;stroke:#000;stroke-width:2.08px;"/><circle cx="1035" cy="223.5" r="3" style="stroke:#000;stroke-width:2.08px;"/><path d="M1084.17,165.047l10.828,-1.547l-1.547,10.828l-9.281,-9.281Z"/><path d="M1035,223.5c0,0 40.685,-40.685 55.05,-55.05" style="fill:none;stroke:#000;stroke-width:2.92px;"/><rect x="960" y="345" width="150" height="150" style="fill:#9d9d9d;stroke:#000;stroke-width:4.17px;"/><text x="1010.32px" y="482.756px" style="font-family:'ArialMT', 'Arial', sans-serif;font-size:58.333px;">M</text><path d="M975,418.848c0,-33.115 26.885,-60 60,-60c33.115,0 60,26.885 60,60" style="fill:none;stroke:#000;stroke-width:2.08px;"/><circle cx="1035" cy="418.5" r="3" style="stroke:#000;stroke-width:2.08px;"/><path d="M1084.17,360.047l10.828,-1.547l-1.547,10.828l-9.281,-9.281Z"/><path d="M1035,418.5c0,0 40.685,-40.685 55.05,-55.05" style="fill:none;stroke:#000;stroke-width:2.92px;"/><g><g transform="matrix(1,0,0,0.999787,0,0.0509508)"><text x="54.969px" y="238.908px" style="font-family:'CambriaMath', 'Cambria Math', serif;font-size:48.075px;">|</text></g><g transform="matrix(1,0,0,0.999787,0,0.0509508)"><text x="70.994px" y="238.908px" style="font-family:'CambriaMath', 'Cambria Math', serif;font-size:48.075px;">0</text></g><g transform="matrix(1,0,0,0.999787,1.42109e-14,0.0502675)"><g transform="matrix(48.0746,0,0,48.0746,96.634,235.704)"><path d="M0.104,-0.701l0.195,0.438l-0,0.036l-0.195,0.439l-0.052,-0.018l0.156,-0.439l-0.156,-0.439l0.052,-0.017Z" style="fill-rule:nonzero;"/></g></g></g><g><g transform="matrix(1,0,0,0.999787,0,0.0925375)"><text x="54.969px" y="433.908px" style="font-family:'CambriaMath', 'Cambria Math', serif;font-size:48.075px;">|</text></g><g transform="matrix(1,0,0,0.999787,0,0.0925375)"><text x="70.994px" y="433.908px" style="font-family:'CambriaMath', 'Cambria Math', serif;font-size:48.075px;">0</text></g><g transform="matrix(1,0,0,0.999787,1.42109e-14,0.0918541)"><g transform="matrix(48.0746,0,0,48.0746,96.634,430.704)"><path d="M0.104,-0.701l0.195,0.438l-0,0.036l-0.195,0.439l-0.052,-0.018l0.156,-0.439l-0.156,-0.439l0.052,-0.017Z" style="fill-rule:nonzero;"/></g></g></g></svg>