<?xml version="1.0" encoding="UTF-8" standalone="no"?><!DOCTYPE svg PUBLIC "-//W3C//DTD SVG 1.1//EN" "http://www.w3.org/Graphics/SVG/1.1/DTD/svg11.dtd"><svg width="100%" height="100%" viewBox="0 0 2400 900" version="1.1" xmlns="http://www.w3.org/2000/svg" xmlns:xlink="http://www.w3.org/1999/xlink" xml:space="preserve" xmlns:serif="http://www.serif.com/" style="fill-rule:evenodd;clip-rule:evenodd;stroke-linecap:round;stroke-linejoin:round;stroke-miterlimit:1.5;"><path d="M825,630l0,-209.652" style="fill:none;stroke:#000;stroke-width:4.17px;"/><path d="M2250,180l-1950,0" style="fill:none;stroke:#000;stroke-width:2.08px;"/><path d="M2250,420l-1950,-0" style="fill:none;stroke:#000;stroke-width:2.08px;"/><path d="M2250,660l-1950,0" style="fill:none;stroke:#000;stroke-width:2.08px;"/><circle cx="825" cy="418.408" r="15" style="stroke:#000;stroke-width:4.17px;"/><path d="M1125,390l0,-209.652" style="fill:none;stroke:#000;stroke-width:4.17px;"/><path d="M1728,628.5l0,-209.652" style="fill:none;stroke:#000;stroke-width:4.17px;"/><path d="M2025,628.5l0,-449.652" style="fill:none;stroke:#000;stroke-width:4.17px;"/><circle cx="1125" cy="178.408" r="15" style="stroke:#000;stroke-width:4.17px;"/><circle cx="1125" cy="418.5" r="60" style="fill:#9d9d9d;stroke:#000;stroke-width:4.17px;"/><path d="M1095,418.5l60,0" style="fill:none;stroke:#000;stroke-width:4.17px;"/><path d="M1125,388.5l0,60" style="fill:none;stroke:#000;stroke-width:4.17px;"/><rect x="450" y="345" width="150" height="150" style="fill:#9d9d9d;stroke:#000;stroke-width:4.17px;"/><text x="494.93px" y="450px" style="font-family:'ArialMT', 'Arial', sans-serif;font-size:83.333px;">H</text><rect x="1350" y="105" width="150" height="150" style="fill:#9d9d9d;stroke:#000;stroke-width:4.17px;"/><text x="1394.93px" y="210px" style="font-family:'ArialMT', 'Arial', sans-serif;font-size:83.333px;">H</text><rect x="1950" y="105" width="150" height="150" style="fill:#9d9d9d;stroke:#000;stroke-width:4.17px;"/><text x="2000.32px" y="242.756px" style="font-family:'ArialMT', 'Arial', sans-serif;font-size:58.333px;">M</text><path d="M1965,178.848c0,-33.115 26.885,-60 60,-60c33.115,0 60,26.885 60,60" style="fill:none;stroke:#000;stroke-width:2.08px;"/><circle cx="2025" cy="178.5" r="3" style="stroke:#000;stroke-width:2.08px;"/><path d="M2074.17,120.047l10.828,-1.547l-1.547,10.828l-9.281,-9.281Z"/><path d="M2025,178.5c0,0 40.685,-40.685 55.05,-55.05" style="fill:none;stroke:#000;stroke-width:2.92px;"/><rect x="1650" y="345" width="150" height="150" style="fill:#9d9d9d;stroke:#000;stroke-width:4.17px;"/><text x="1700.32px" y="482.756px" style="font-family:'ArialMT', 'Arial', sans-serif;font-size:58.333px;">M</text><path d="M1665,418.848c0,-33.115 26.885,-60 60,-60c33.115,0 60,26.885 60,60" style="fill:none;stroke:#000;stroke-width:2.08px;"/><circle cx="1725" cy="418.5" r="3" style="stroke:#000;stroke-width:2.08px;"/><path d="M1774.17,360.047l10.828,-1.547l-1.547,10.828l-9.281,-9.281Z"/><path d="M1725,418.5c0,0 40.685,-40.685 55.05,-55.05" style="fill:none;stroke:#000;stroke-width:2.92px;"/><g><g transform="matrix(0.416414,0,0,0.416489,30.3832,191.289)"><text x="0px" y="0px" style="font-family:'CambriaMath', 'Cambria Math', serif;font-size:110px;">M</text><text x="90.047px" y="0px" style="font-family:'CambriaMath', 'Cambria Math', serif;font-size:110px;">e</text><text x="144.024px" y="0px" style="font-family:'CambriaMath', 'Cambria Math', serif;font-size:110px;">s<tspan x="190.99px " y="0px ">s</tspan></text><text x="237.956px" y="0px" style="font-family:'CambriaMath', 'Cambria Math', serif;font-size:110px;">a</text><text x="291.987px" y="0px" style="font-family:'CambriaMath', 'Cambria Math', serif;font-size:110px;">g</text><text x="346.002px" y="0px" style="font-family:'CambriaMath', 'Cambria Math', serif;font-size:110px;">e</text></g><g transform="matrix(0.999821,0,0,1,0.0369956,0)"><text x="206.943px" y="191.289px" style="font-family:'CambriaMath', 'Cambria Math', serif;font-size:45.814px;">|</text></g><g transform="matrix(0.999821,0,0,1,0.0396011,0)"><text x="221.517px" y="191.289px" style="font-family:'CambriaMath', 'Cambria Math', serif;font-size:45.814px;">𝜓</text></g><g transform="matrix(0.999821,0,0,1,0.0454821,0)"><g transform="matrix(45.8138,0,0,45.8138,254.414,189.623)"><path d="M0.104,-0.701l0.195,0.438l-0,0.036l-0.195,0.439l-0.052,-0.018l0.156,-0.439l-0.156,-0.439l0.052,-0.017Z" style="fill-rule:nonzero;"/></g></g></g><g><g transform="matrix(0.416414,0,0,0.416489,106.366,431.289)"><text x="0px" y="0px" style="font-family:'CambriaMath', 'Cambria Math', serif;font-size:110px;">A</text><text x="69.005px" y="0px" style="font-family:'CambriaMath', 'Cambria Math', serif;font-size:110px;">l</text><text x="99.058px" y="0px" style="font-family:'CambriaMath', 'Cambria Math', serif;font-size:110px;">i</text><text x="130.04px" y="0px" style="font-family:'CambriaMath', 'Cambria Math', serif;font-size:110px;">c</text><text x="179.031px" y="0px" style="font-family:'CambriaMath', 'Cambria Math', serif;font-size:110px;">e</text></g><g transform="matrix(0.999821,0,0,1,0.0380727,0)"><text x="212.968px" y="431.289px" style="font-family:'CambriaMath', 'Cambria Math', serif;font-size:45.814px;">|</text></g><g transform="matrix(0.999821,0,0,1,0.0406782,0)"><text x="227.542px" y="431.289px" style="font-family:'CambriaMath', 'Cambria Math', serif;font-size:45.814px;">0</text></g><g transform="matrix(0.999821,0,0,1,0.0452193,0)"><g transform="matrix(45.8138,0,0,45.8138,252.944,429.623)"><path d="M0.104,-0.701l0.195,0.438l-0,0.036l-0.195,0.439l-0.052,-0.018l0.156,-0.439l-0.156,-0.439l0.052,-0.017Z" style="fill-rule:nonzero;"/></g></g></g><g><g transform="matrix(0.416414,0,0,0.416489,125.521,670.909)"><text x="0px" y="0px" style="font-family:'CambriaMath', 'Cambria Math', serif;font-size:110px;">B</text><text x="67.036px" y="0px" style="font-family:'CambriaMath', 'Cambria Math', serif;font-size:110px;">o</text><text x="125.01px" y="0px" style="font-family:'CambriaMath', 'Cambria Math', serif;font-size:110px;">b</text></g><g transform="matrix(0.999821,0,0,1,0.0380727,-1.13687e-13)"><text x="212.968px" y="670.909px" style="font-family:'CambriaMath', 'Cambria Math', serif;font-size:45.814px;">|</text></g><g transform="matrix(0.999821,0,0,1,0.0406782,-1.13687e-13)"><text x="227.542px" y="670.909px" style="font-family:'CambriaMath', 'Cambria Math', serif;font-size:45.814px;">0</text></g><g transform="matrix(0.999821,0,0,1,0.0452193,0)"><g transform="matrix(45.8138,0,0,45.8138,252.944,669.243)"><path d="M0.104,-0.701l0.195,0.438l-0,0.036l-0.195,0.439l-0.052,-0.018l0.156,-0.439l-0.156,-0.439l0.052,-0.017Z" style="fill-rule:nonzero;"/></g></g></g><g><g transform="matrix(0.999821,0,0,1,0.406541,0)"><text x="2274.07px" y="669.789px" style="font-family:'CambriaMath', 'Cambria Math', serif;font-size:45.814px;">|</text></g><g transform="matrix(0.999821,0,0,1,0.409146,0)"><text x="2288.65px" y="669.789px" style="font-family:'CambriaMath', 'Cambria Math', serif;font-size:45.814px;">𝜓</text></g><g transform="matrix(0.999821,0,0,1,0.415027,0)"><g transform="matrix(45.8138,0,0,45.8138,2321.54,668.123)"><path d="M0.104,-0.701l0.195,0.438l-0,0.036l-0.195,0.439l-0.052,-0.018l0.156,-0.439l-0.156,-0.439l0.052,-0.017Z" style="fill-rule:nonzero;"/></g></g></g><rect x="1650" y="586.5" width="150" height="150" style="fill:#9d9d9d;stroke:#000;stroke-width:4.17px;"/><text x="1696.95px" y="691.5px" style="font-family:'ArialMT', 'Arial', sans-serif;font-size:83.333px;">X</text><rect x="1950" y="585" width="150" height="150" style="fill:#9d9d9d;stroke:#000;stroke-width:4.17px;"/><text x="1996.95px" y="690px" style="font-family:'ArialMT', 'Arial', sans-serif;font-size:83.333px;">Z</text><circle cx="825" cy="660" r="60" style="fill:#9d9d9d;stroke:#000;stroke-width:4.17px;"/><path d="M795,660l60,0" style="fill:none;stroke:#000;stroke-width:4.17px;"/><path d="M825,630l-0,60" style="fill:none;stroke:#000;stroke-width:4.17px;"/></svg>