<svg xmlns="http://www.w3.org/2000/svg" xml:space="preserve" x="195" y="50" version="1.1" viewBox="0 0 195 50">
            <style>
              .st1{fill:#fdb813}.st2{fill:#32a0da}
            </style>
            <path fill="#f05125" d="M.5 23.9h4.6c.3-9.5 7.1-17.3 16.1-19.2v4.8C14.7 11.3 10 17.1 9.7 23.9h3.8c.3-5.9 5-10.7 10.9-11V-.2C11.3.2.7 10.8.5 23.9zm16.9 0H20c.3-2.4 2.1-4.3 4.5-4.5v-2.6c-3.8.3-6.9 3.3-7.1 7.1z"></path>
            <path d="M26.2 45.2v4.6c13.3-.2 24-10.9 24.3-24.2h-4.6c-.3 10.8-9 19.4-19.7 19.6z" class="st1"></path>
            <path d="M41.2 25.6H30.8c-.3 2.4-2.1 4.3-4.5 4.5v2.6c2.7-.2 5-1.8 6.2-4h4.4c-1.5 4.5-5.6 7.8-10.6 8v3.8c8-.2 14.6-6.7 14.9-14.9z" class="st1"></path>
            <path d="M5.1 25.6H.5c.3 13.2 10.9 23.8 24 24.2v-4.6c-10.7-.4-19.2-8.9-19.4-19.6z" class="st2"></path>
            <path d="M13.5 25.6H9.7c.3 8 6.7 14.5 14.7 14.9v-3.8c-5.9-.4-10.6-5.1-10.9-11.1zm6.4 0h-2.6c.3 3.8 3.3 6.8 7.1 7.1v-2.6c-2.3-.2-4.2-2.1-4.5-4.5z" class="st2"></path>
            <path fill="#7fbb42" d="M37.4 23.9h3.8C40.9 16 34.6 9.6 26.7 9.1h-.5v3.8c.3 0 .8 0 1 .1 5.5.6 9.9 5.2 10.2 10.9zm-4.2 0h-2.6c-.3-2.4-2.1-4.3-4.5-4.5v-2.6c3.8.3 6.9 3.3 7.1 7.1z"></path>
            <path fill="#737373" d="M64.2 34.9V17.8H69l4.3 8.7 4.2-8.7h4.9V35h-5v-8.6L74.6 32h-2.7l-2.8-5.7v8.6h-4.9zM85 20.6V17h5.4v3.6H85zm.4 14.3v-9h-1.8l.4-3.7h6.4v12.6h-5zm16.5.3c-3.1 0-5.5-.8-7.1-2.3-1.6-1.5-2.5-3.7-2.5-6.5 0-2.9.8-5.1 2.4-6.6 1.6-1.5 4-2.3 7.1-2.3 1.1 0 2 .1 2.9.2.8.2 1.6.4 2.4.7v4.4c-1.5-.7-3.2-1-4.9-1-1.6 0-2.8.4-3.6 1.1-.8.7-1.2 1.9-1.2 3.5s.4 2.8 1.2 3.5c.8.7 2 1 3.6 1 .9 0 1.7-.1 2.5-.2.8-.2 1.6-.4 2.4-.7v4.4c-.8.3-1.6.5-2.4.6-.8.1-1.8.2-2.8.2zm7.1-.3V17.8h8.9c1.4 0 2.6.3 3.4.8.9.5 1.6 1.2 2 2.2.4.9.7 2 .7 3.2 0 1.2-.3 2.2-.9 3.1-.6.9-1.3 1.5-2.3 2 .2.2.4.4.5.6.1.2.3.5.5.9l2 4.5h-5.2l-1.8-4.1c-.1-.3-.3-.5-.5-.7-.2-.1-.5-.2-.9-.2H114v5h-5zm5-8.8h2.6c.7 0 1.3-.2 1.7-.6.4-.4.6-.9.6-1.7 0-1.5-.7-2.3-2.1-2.3H114v4.6zm19.8 9.1c-2.8 0-5-.7-6.5-2.1-1.5-1.4-2.2-3.6-2.2-6.7 0-2.1.3-3.8 1-5.1.7-1.3 1.7-2.3 3-2.9 1.3-.6 2.9-.9 4.8-.9s3.5.3 4.8.9c1.3.6 2.3 1.5 3 2.9.7 1.3 1 3 1 5.1 0 3.1-.8 5.3-2.3 6.7-1.6 1.4-3.8 2.1-6.6 2.1zm0-4.3c1.3 0 2.2-.4 2.8-1.1.6-.7.9-1.9.9-3.5 0-1.7-.3-2.9-.9-3.6-.6-.7-1.5-1.1-2.8-1.1-1.3 0-2.2.4-2.8 1.1-.6.7-.9 1.9-.9 3.6 0 1.6.3 2.7.9 3.5.6.8 1.5 1.1 2.8 1.1zm10.6 4V17.8h4.3l6.5 9.1v-9.1h5V35h-4.3l-6.5-9.1V35h-5zm26.4.3c-2.8 0-5-.7-6.5-2.1-1.5-1.4-2.2-3.6-2.2-6.7 0-2.1.3-3.8 1-5.1.7-1.3 1.7-2.3 3-2.9 1.3-.6 2.9-.9 4.8-.9s3.5.3 4.8.9c1.3.6 2.3 1.5 3 2.9.7 1.3 1 3 1 5.1 0 3.1-.8 5.3-2.3 6.7-1.6 1.4-3.7 2.1-6.6 2.1zm0-4.3c1.3 0 2.2-.4 2.8-1.1.6-.7.9-1.9.9-3.5 0-1.7-.3-2.9-.9-3.6-.6-.7-1.5-1.1-2.8-1.1-1.3 0-2.2.4-2.8 1.1-.6.7-.9 1.9-.9 3.6 0 1.6.3 2.7.9 3.5.6.8 1.6 1.1 2.8 1.1zm16.3 4.3c-1.2 0-2.2-.1-3.3-.3-1-.2-1.9-.5-2.6-.8V30c.8.4 1.7.7 2.7.9 1 .2 1.9.3 2.7.3.9 0 1.6-.1 2-.2.5-.2.7-.5.7-1 0-.4-.1-.7-.4-.9-.2-.2-.6-.4-1.2-.6-.5-.2-1.2-.4-2.1-.7-1.2-.4-2.1-.8-2.7-1.2-.7-.4-1.2-1-1.5-1.6-.3-.6-.4-1.4-.4-2.3 0-1.7.6-3 1.8-3.8 1.2-.9 3-1.3 5.4-1.3.9 0 1.9.1 2.9.2 1 .2 1.8.3 2.5.5v4.2c-.8-.3-1.6-.6-2.4-.7s-1.5-.2-2.2-.2c-.8 0-1.4.1-2 .2-.6.1-.8.4-.8 1 0 .4.2.8.7 1 .5.2 1.3.5 2.5.8 1.4.4 2.5.8 3.2 1.4.7.5 1.3 1.2 1.5 1.9.3.7.4 1.5.4 2.4 0 1.6-.6 2.8-1.8 3.8-1.3.6-3.1 1.1-5.6 1.1z"></path>
        </svg>